<svg id="SvgjsSvg1392" width="4976" height="5000" xmlns="http://www.w3.org/2000/svg" version="1.1" xmlns:xlink="http://www.w3.org/1999/xlink" xmlns:svgjs="http://svgjs.com/svgjs" viewBox="0 0 245.984375 247.140625"><defs id="SvgjsDefs1393"></defs><g id="SvgjsG1395" transform="rotate(0 122.484375 68.953125)"><svg width="160" viewBox="0 0 17.982580184936523 15.5" xmlns="http://www.w3.org/2000/svg" version="1.1" xmlns:xlink="http://www.w3.org/1999/xlink" xmlns:svgjs="http://svgjs.com/svgjs" preserveAspectRatio="none" height="137.90625" x="42.484375" y="0"><g><svg data-color="1" xmlns="http://www.w3.org/2000/svg" xmlns:xlink="http://www.w3.org/1999/xlink" viewBox="2.9997193813323975 4.00029993057251 17.982580184936523 15.5" version="1.1" x="0px" y="0px" width="17.982580184936523" height="15.5" fill="#FFFFFF"><title>geo-1</title><desc>Created with Sketch.</desc><g stroke-width="1" fill-rule="evenodd"><g><path d="M7.2453,4.7573 L11.4413,11.7503 L7.2453,18.7423 L3.5163,11.7503 L7.2453,4.7573 Z M16.0913,4.5003 L20.2913,11.5003 L11.8743,11.5003 L7.6743,4.5003 L16.0913,4.5003 Z M20.9703,11.7793 C20.9723,11.7683 20.9823,11.7613 20.9823,11.7503 C20.9823,11.7383 20.9723,11.7323 20.9703,11.7203 C20.9683,11.6973 20.9613,11.6803 20.9523,11.6583 C20.9473,11.6463 20.9533,11.6333 20.9473,11.6213 L16.4473,4.1213 C16.4413,4.1113 16.4283,4.1113 16.4213,4.1033 C16.4013,4.0763 16.3763,4.0643 16.3463,4.0473 C16.3173,4.0313 16.2943,4.0163 16.2623,4.0123 C16.2513,4.0103 16.2443,4.0003 16.2323,4.0003 L7.2323,4.0003 C7.2193,4.0003 7.2103,4.0123 7.1973,4.0143 C7.1743,4.0183 7.1573,4.0213 7.1363,4.0303 C7.1253,4.0353 7.1143,4.0293 7.1043,4.0353 C7.0943,4.0413 7.0943,4.0543 7.0853,4.0613 C7.0663,4.0753 7.0553,4.0893 7.0413,4.1083 C7.0333,4.1183 7.0183,4.1203 7.0123,4.1323 L3.0123,11.6323 C3.0073,11.6403 3.0133,11.6493 3.0093,11.6573 C2.9963,11.6883 3.0003,11.7163 3.0003,11.7503 C3.0003,11.7833 2.9963,11.8123 3.0093,11.8423 C3.0133,11.8503 3.0073,11.8593 3.0123,11.8673 L7.0123,19.3673 C7.0203,19.3833 7.0353,19.3903 7.0463,19.4033 C7.0563,19.4163 7.0643,19.4253 7.0773,19.4353 C7.0863,19.4443 7.0923,19.4563 7.1033,19.4633 C7.1033,19.4633 7.1033,19.4643 7.1043,19.4643 L7.1043,19.4643 C7.1433,19.4873 7.1873,19.5003 7.2323,19.5003 L16.2323,19.5003 C16.2903,19.5003 16.3423,19.4733 16.3883,19.4363 C16.3993,19.4263 16.4083,19.4183 16.4173,19.4063 C16.4273,19.3963 16.4393,19.3903 16.4473,19.3783 L20.9473,11.8783 C20.9533,11.8663 20.9473,11.8533 20.9523,11.8413 C20.9613,11.8193 20.9683,11.8023 20.9703,11.7793 L20.9703,11.7793 Z"></path></g></g></svg></g><defs id="SvgjsDefs1394"></defs></svg></g><g id="SvgjsG1397" transform="rotate(0 122.4921875 192.1640625)"><svg xmlns="http://www.w3.org/2000/svg" xmlns:xlink="http://www.w3.org/1999/xlink" width="231.828125" viewBox="2.559999942779541 7.110000133514404 231.8300018310547 38.529998779296875" overflow="visible" style="overflow: visible;" transform="" version="1.1" xmlns:svgjs="http://svgjs.com/svgjs" preserveAspectRatio="none" height="38.515625" x="6.578125" y="172.90625" fill="#000000" stroke="none"><path stroke="none" fill="#FFFFFF" d="M21.31 28.24L23.73 28.24L23.73 28.24Q23.24 32.73 20.52 35.12L20.52 35.12L20.52 35.12Q17.79 37.50 13.26 37.50L13.26 37.50L13.26 37.50Q10.10 37.50 7.67 35.92L7.67 35.92L7.67 35.92Q5.23 34.34 3.91 31.44L3.91 31.44L3.91 31.44Q2.58 28.54 2.56 24.80L2.56 24.80L2.56 21.11L2.56 21.11Q2.56 17.32 3.89 14.39L3.89 14.39L3.89 14.39Q5.21 11.46 7.71 9.87L7.71 9.87L7.71 9.87Q10.20 8.28 13.44 8.28L13.44 8.28L13.44 8.28Q18.01 8.28 20.65 10.75L20.65 10.75L20.65 10.75Q23.30 13.22 23.73 17.58L23.73 17.58L21.31 17.58L21.31 17.58Q20.41 10.33 13.44 10.33L13.44 10.33L13.44 10.33Q9.57 10.33 7.28 13.22L7.28 13.22L7.28 13.22Q4.98 16.11 4.98 21.21L4.98 21.21L4.98 24.69L4.98 24.69Q4.98 29.61 7.22 32.54L7.22 32.54L7.22 32.54Q9.45 35.47 13.26 35.47L13.26 35.47L13.26 35.47Q17.03 35.47 18.95 33.66L18.95 33.66L18.95 33.66Q20.86 31.86 21.31 28.24L21.31 28.24ZM27.73 26.70L27.73 26.23L27.73 26.23Q27.73 23.18 28.92 20.74L28.92 20.74L28.92 20.74Q30.10 18.30 32.26 16.94L32.26 16.94L32.26 16.94Q34.41 15.59 37.15 15.59L37.15 15.59L37.15 15.59Q41.37 15.59 43.98 18.54L43.98 18.54L43.98 18.54Q46.60 21.50 46.60 26.39L46.60 26.39L46.60 26.88L46.60 26.88Q46.60 29.94 45.42 32.39L45.42 32.39L45.42 32.39Q44.24 34.84 42.09 36.17L42.09 36.17L42.09 36.17Q39.94 37.50 37.19 37.50L37.19 37.50L37.19 37.50Q32.99 37.50 30.36 34.54L30.36 34.54L30.36 34.54Q27.73 31.58 27.73 26.70L27.73 26.70ZM30.08 26.45L30.08 26.88L30.08 26.88Q30.08 30.66 32.04 33.10L32.04 33.10L32.04 33.10Q34.00 35.53 37.19 35.53L37.19 35.53L37.19 35.53Q40.35 35.53 42.31 33.10L42.31 33.10L42.31 33.10Q44.28 30.66 44.28 26.68L44.28 26.68L44.28 26.23L44.28 26.23Q44.28 23.81 43.38 21.80L43.38 21.80L43.38 21.80Q42.48 19.79 40.86 18.68L40.86 18.68L40.86 18.68Q39.24 17.58 37.15 17.58L37.15 17.58L37.15 17.58Q34.02 17.58 32.05 20.03L32.05 20.03L32.05 20.03Q30.08 22.48 30.08 26.45L30.08 26.45ZM50.49 26.62L50.49 26.35L50.49 26.35Q50.49 21.43 52.69 18.51L52.69 18.51L52.69 18.51Q54.88 15.59 58.65 15.59L58.65 15.59L58.65 15.59Q62.93 15.59 65.18 18.96L65.18 18.96L65.18 7.11L67.50 7.11L67.50 37.11L65.31 37.11L65.21 34.30L65.21 34.30Q62.97 37.50 58.61 37.50L58.61 37.50L58.61 37.50Q54.96 37.50 52.72 34.56L52.72 34.56L52.72 34.56Q50.49 31.62 50.49 26.62L50.49 26.62ZM52.85 26.76L52.85 26.76L52.85 26.76Q52.85 30.80 54.47 33.13L54.47 33.13L54.47 33.13Q56.09 35.47 59.04 35.47L59.04 35.47L59.04 35.47Q63.36 35.47 65.18 31.66L65.18 31.66L65.18 21.74L65.18 21.74Q63.36 17.62 59.08 17.62L59.08 17.62L59.08 17.62Q56.13 17.62 54.49 19.93L54.49 19.93L54.49 19.93Q52.85 22.25 52.85 26.76ZM81.84 37.50L81.84 37.50L81.84 37.50Q79.14 37.50 76.96 36.17L76.96 36.17L76.96 36.17Q74.79 34.84 73.57 32.47L73.57 32.47L73.57 32.47Q72.36 30.10 72.36 27.15L72.36 27.15L72.36 26.31L72.36 26.31Q72.36 23.26 73.54 20.82L73.54 20.82L73.54 20.82Q74.73 18.38 76.84 16.98L76.84 16.98L76.84 16.98Q78.95 15.59 81.41 15.59L81.41 15.59L81.41 15.59Q85.25 15.59 87.51 18.21L87.51 18.21L87.51 18.21Q89.77 20.84 89.77 25.39L89.77 25.39L89.77 26.70L74.69 26.70L74.69 27.15L74.69 27.15Q74.69 30.74 76.75 33.13L76.75 33.13L76.75 33.13Q78.81 35.53 81.93 35.53L81.93 35.53L81.93 35.53Q83.81 35.53 85.24 34.84L85.24 34.84L85.24 34.84Q86.68 34.16 87.85 32.66L87.85 32.66L89.32 33.77L89.32 33.77Q86.74 37.50 81.84 37.50ZM81.41 17.58L81.41 17.58L81.41 17.58Q78.77 17.58 76.96 19.51L76.96 19.51L76.96 19.51Q75.16 21.45 74.77 24.71L74.77 24.71L87.44 24.71L87.44 24.45L87.44 24.45Q87.34 21.41 85.70 19.49L85.70 19.49L85.70 19.49Q84.06 17.58 81.41 17.58ZM119.88 37.11L117.38 37.11L117.38 37.11Q117.03 36.11 116.93 34.16L116.93 34.16L116.93 34.16Q115.70 35.76 113.80 36.63L113.80 36.63L113.80 36.63Q111.89 37.50 109.77 37.50L109.77 37.50L109.77 37.50Q106.72 37.50 104.83 35.80L104.83 35.80L104.83 35.80Q102.95 34.10 102.95 31.50L102.95 31.50L102.95 31.50Q102.95 28.42 105.52 26.62L105.52 26.62L105.52 26.62Q108.09 24.82 112.68 24.82L112.68 24.82L116.91 24.82L116.91 22.42L116.91 22.42Q116.91 20.16 115.52 18.86L115.52 18.86L115.52 18.86Q114.12 17.56 111.45 17.56L111.45 17.56L111.45 17.56Q109.00 17.56 107.40 18.81L107.40 18.81L107.40 18.81Q105.80 20.06 105.80 21.82L105.80 21.82L103.46 21.80L103.46 21.80Q103.46 19.28 105.80 17.43L105.80 17.43L105.80 17.43Q108.14 15.59 111.56 15.59L111.56 15.59L111.56 15.59Q115.10 15.59 117.14 17.35L117.14 17.35L117.14 17.35Q119.18 19.12 119.24 22.29L119.24 22.29L119.24 32.29L119.24 32.29Q119.24 35.35 119.88 36.88L119.88 36.88L119.88 37.11ZM110.04 35.43L110.04 35.43L110.04 35.43Q112.38 35.43 114.23 34.30L114.23 34.30L114.23 34.30Q116.07 33.16 116.91 31.27L116.91 31.27L116.91 26.62L112.73 26.62L112.73 26.62Q109.24 26.66 107.27 27.90L107.27 27.90L107.27 27.90Q105.29 29.14 105.29 31.31L105.29 31.31L105.29 31.31Q105.29 33.09 106.61 34.26L106.61 34.26L106.61 34.26Q107.93 35.43 110.04 35.43ZM125.47 15.98L127.70 15.98L127.77 19.59L127.77 19.59Q128.96 17.64 130.74 16.61L130.74 16.61L130.74 16.61Q132.52 15.59 134.67 15.59L134.67 15.59L134.67 15.59Q138.07 15.59 139.73 17.50L139.73 17.50L139.73 17.50Q141.39 19.41 141.41 23.24L141.41 23.24L141.41 37.11L139.08 37.11L139.08 23.22L139.08 23.22Q139.06 20.39 137.88 19.00L137.88 19.00L137.88 19.00Q136.70 17.62 134.10 17.62L134.10 17.62L134.10 17.62Q131.93 17.62 130.26 18.97L130.26 18.97L130.26 18.97Q128.59 20.33 127.79 22.64L127.79 22.64L127.79 37.11L125.47 37.11L125.47 15.98ZM146.50 26.62L146.50 26.35L146.50 26.35Q146.50 21.43 148.70 18.51L148.70 18.51L148.70 18.51Q150.90 15.59 154.67 15.59L154.67 15.59L154.67 15.59Q158.95 15.59 161.19 18.96L161.19 18.96L161.19 7.11L163.52 7.11L163.52 37.11L161.33 37.11L161.23 34.30L161.23 34.30Q158.98 37.50 154.63 37.50L154.63 37.50L154.63 37.50Q150.98 37.50 148.74 34.56L148.74 34.56L148.74 34.56Q146.50 31.62 146.50 26.62L146.50 26.62ZM148.87 26.76L148.87 26.76L148.87 26.76Q148.87 30.80 150.49 33.13L150.49 33.13L150.49 33.13Q152.11 35.47 155.06 35.47L155.06 35.47L155.06 35.47Q159.38 35.47 161.19 31.66L161.19 31.66L161.19 21.74L161.19 21.74Q159.38 17.62 155.10 17.62L155.10 17.62L155.10 17.62Q152.15 17.62 150.51 19.93L150.51 19.93L150.51 19.93Q148.87 22.25 148.87 26.76ZM192.97 37.11L184.41 26.46L181.74 29.04L181.74 37.11L179.39 37.11L179.39 7.11L181.74 7.11L181.74 26.31L183.95 23.93L192.03 15.98L194.98 15.98L186.02 24.88L195.76 37.11L192.97 37.11ZM206.78 37.50L206.78 37.50L206.78 37.50Q204.08 37.50 201.90 36.17L201.90 36.17L201.90 36.17Q199.73 34.84 198.52 32.47L198.52 32.47L198.52 32.47Q197.30 30.10 197.30 27.15L197.30 27.15L197.30 26.31L197.30 26.31Q197.30 23.26 198.49 20.82L198.49 20.82L198.49 20.82Q199.67 18.38 201.78 16.98L201.78 16.98L201.78 16.98Q203.89 15.59 206.35 15.59L206.35 15.59L206.35 15.59Q210.20 15.59 212.45 18.21L212.45 18.21L212.45 18.21Q214.71 20.84 214.71 25.39L214.71 25.39L214.71 26.70L199.63 26.70L199.63 27.15L199.63 27.15Q199.63 30.74 201.69 33.13L201.69 33.13L201.69 33.13Q203.75 35.53 206.88 35.53L206.88 35.53L206.88 35.53Q208.75 35.53 210.19 34.84L210.19 34.84L210.19 34.84Q211.62 34.16 212.79 32.66L212.79 32.66L214.26 33.77L214.26 33.77Q211.68 37.50 206.78 37.50ZM206.35 17.58L206.35 17.58L206.35 17.58Q203.71 17.58 201.90 19.51L201.90 19.51L201.90 19.51Q200.10 21.45 199.71 24.71L199.71 24.71L212.38 24.71L212.38 24.45L212.38 24.45Q212.29 21.41 210.64 19.49L210.64 19.49L210.64 19.49Q209.00 17.58 206.35 17.58ZM219.14 15.98L225.70 33.75L231.88 15.98L234.39 15.98L225.37 40.70L224.90 41.80L224.90 41.80Q223.16 45.64 219.53 45.64L219.53 45.64L219.53 45.64Q218.69 45.64 217.73 45.37L217.73 45.37L217.71 43.44L218.93 43.55L218.93 43.55Q220.64 43.55 221.71 42.71L221.71 42.71L221.71 42.71Q222.77 41.86 223.52 39.79L223.52 39.79L224.55 36.93L216.58 15.98L219.14 15.98Z" transform="rotate(0 118.47500085830688 26.374999523162842)"></path><defs id="SvgjsDefs1396"></defs></svg></g><g id="SvgjsG1399" transform="rotate(0 122.9921875 236.78125)"><svg xmlns="http://www.w3.org/2000/svg" xmlns:xlink="http://www.w3.org/1999/xlink" width="245.984375" viewBox="0.3500000238418579 2.680000066757202 245.989990234375 14.729999542236328" overflow="visible" style="overflow: visible;" transform="" version="1.1" xmlns:svgjs="http://svgjs.com/svgjs" preserveAspectRatio="none" height="14.71875" x="0" y="229.421875" fill="#000000" stroke="none"><path stroke="none" fill="#FFFFFF" d="M3.54 14.84L1.64 14.84L1.64 7.80L0.35 7.80L0.35 6.39L1.64 6.39L1.64 5.62L1.64 5.62Q1.64 4.21 2.42 3.45L2.42 3.45L2.42 3.45Q3.20 2.68 4.61 2.68L4.61 2.68L4.61 2.68Q5.11 2.68 5.67 2.82L5.67 2.82L5.63 4.30L5.63 4.30Q5.31 4.24 4.90 4.24L4.90 4.24L4.90 4.24Q3.54 4.24 3.54 5.64L3.54 5.64L3.54 6.39L5.26 6.39L5.26 7.80L3.54 7.80L3.54 14.84ZM13.08 6.34L13.07 8.13L13.07 8.13Q12.70 8.06 12.30 8.06L12.30 8.06L12.30 8.06Q10.99 8.06 10.54 9.06L10.54 9.06L10.54 14.84L8.64 14.84L8.64 6.39L10.45 6.39L10.50 7.34L10.50 7.34Q11.19 6.23 12.41 6.23L12.41 6.23L12.41 6.23Q12.81 6.23 13.08 6.34L13.08 6.34ZM19.84 15L19.84 15L19.84 15Q18.04 15 16.92 13.86L16.92 13.86L16.92 13.86Q15.80 12.73 15.80 10.84L15.80 10.84L15.80 10.60L15.80 10.60Q15.80 9.34 16.29 8.34L16.29 8.34L16.29 8.34Q16.77 7.34 17.66 6.79L17.66 6.79L17.66 6.79Q18.54 6.23 19.63 6.23L19.63 6.23L19.63 6.23Q21.35 6.23 22.29 7.34L22.29 7.34L22.29 7.34Q23.23 8.44 23.23 10.45L23.23 10.45L23.23 11.22L17.71 11.22L17.71 11.22Q17.80 12.27 18.41 12.88L18.41 12.88L18.41 12.88Q19.02 13.48 19.95 13.48L19.95 13.48L19.95 13.48Q21.26 13.48 22.08 12.43L22.08 12.43L23.10 13.41L23.10 13.41Q22.59 14.16 21.75 14.58L21.75 14.58L21.75 14.58Q20.90 15 19.84 15ZM19.62 7.76L19.62 7.76L19.62 7.76Q18.84 7.76 18.36 8.30L18.36 8.30L18.36 8.30Q17.88 8.85 17.74 9.83L17.74 9.83L21.36 9.83L21.36 9.69L21.36 9.69Q21.30 8.73 20.85 8.25L20.85 8.25L20.85 8.25Q20.41 7.76 19.62 7.76ZM30.43 15L30.43 15L30.43 15Q28.63 15 27.50 13.86L27.50 13.86L27.50 13.86Q26.38 12.73 26.38 10.84L26.38 10.84L26.38 10.60L26.38 10.60Q26.38 9.34 26.87 8.34L26.87 8.34L26.87 8.34Q27.36 7.34 28.24 6.79L28.24 6.79L28.24 6.79Q29.13 6.23 30.21 6.23L30.21 6.23L30.21 6.23Q31.94 6.23 32.88 7.34L32.88 7.34L32.88 7.34Q33.82 8.44 33.82 10.45L33.82 10.45L33.82 11.22L28.30 11.22L28.30 11.22Q28.38 12.27 29.00 12.88L29.00 12.88L29.00 12.88Q29.61 13.48 30.54 13.48L30.54 13.48L30.54 13.48Q31.84 13.48 32.66 12.43L32.66 12.43L33.69 13.41L33.69 13.41Q33.18 14.16 32.33 14.58L32.33 14.58L32.33 14.58Q31.48 15 30.43 15ZM30.20 7.76L30.20 7.76L30.20 7.76Q29.42 7.76 28.94 8.30L28.94 8.30L28.94 8.30Q28.46 8.85 28.33 9.83L28.33 9.83L31.95 9.83L31.95 9.69L31.95 9.69Q31.88 8.73 31.44 8.25L31.44 8.25L31.44 8.25Q30.99 7.76 30.20 7.76ZM43.76 4.34L45.66 4.34L45.66 6.39L47.15 6.39L47.15 7.80L45.66 7.80L45.66 12.52L45.66 12.52Q45.66 13 45.85 13.21L45.85 13.21L45.85 13.21Q46.04 13.43 46.53 13.43L46.53 13.43L46.53 13.43Q46.86 13.43 47.20 13.35L47.20 13.35L47.20 14.82L47.20 14.82Q46.55 15 45.95 15L45.95 15L45.95 15Q43.76 15 43.76 12.59L43.76 12.59L43.76 7.80L42.37 7.80L42.37 6.39L43.76 6.39L43.76 4.34ZM50.01 10.63L50.01 10.54L50.01 10.54Q50.01 9.30 50.50 8.30L50.50 8.30L50.50 8.30Q50.99 7.30 51.88 6.77L51.88 6.77L51.88 6.77Q52.77 6.23 53.93 6.23L53.93 6.23L53.93 6.23Q55.64 6.23 56.71 7.34L56.71 7.34L56.71 7.34Q57.77 8.44 57.86 10.26L57.86 10.26L57.87 10.70L57.87 10.70Q57.87 11.95 57.39 12.94L57.39 12.94L57.39 12.94Q56.91 13.92 56.01 14.46L56.01 14.46L56.01 14.46Q55.12 15 53.95 15L53.95 15L53.95 15Q52.16 15 51.08 13.81L51.08 13.81L51.08 13.81Q50.01 12.62 50.01 10.63L50.01 10.63ZM51.91 10.70L51.91 10.70L51.91 10.70Q51.91 12.01 52.45 12.75L52.45 12.75L52.45 12.75Q52.98 13.48 53.95 13.48L53.95 13.48L53.95 13.48Q54.91 13.48 55.44 12.73L55.44 12.73L55.44 12.73Q55.98 11.98 55.98 10.54L55.98 10.54L55.98 10.54Q55.98 9.26 55.43 8.51L55.43 8.51L55.43 8.51Q54.88 7.76 53.93 7.76L53.93 7.76L53.93 7.76Q53 7.76 52.45 8.50L52.45 8.50L52.45 8.50Q51.91 9.23 51.91 10.70ZM69.48 2.84L69.48 14.84L67.58 14.84L67.58 2.84L69.48 2.84ZM77.27 15L77.27 15L77.27 15Q75.46 15 74.34 13.86L74.34 13.86L74.34 13.86Q73.22 12.73 73.22 10.84L73.22 10.84L73.22 10.60L73.22 10.60Q73.22 9.34 73.71 8.34L73.71 8.34L73.71 8.34Q74.20 7.34 75.08 6.79L75.08 6.79L75.08 6.79Q75.96 6.23 77.05 6.23L77.05 6.23L77.05 6.23Q78.77 6.23 79.71 7.34L79.71 7.34L79.71 7.34Q80.66 8.44 80.66 10.45L80.66 10.45L80.66 11.22L75.13 11.22L75.13 11.22Q75.22 12.27 75.83 12.88L75.83 12.88L75.83 12.88Q76.45 13.48 77.38 13.48L77.38 13.48L77.38 13.48Q78.68 13.48 79.50 12.43L79.50 12.43L80.52 13.41L80.52 13.41Q80.02 14.16 79.17 14.58L79.17 14.58L79.17 14.58Q78.32 15 77.27 15ZM77.04 7.76L77.04 7.76L77.04 7.76Q76.26 7.76 75.78 8.30L75.78 8.30L75.78 8.30Q75.30 8.85 75.16 9.83L75.16 9.83L78.78 9.83L78.78 9.69L78.78 9.69Q78.72 8.73 78.27 8.25L78.27 8.25L78.27 8.25Q77.83 7.76 77.04 7.76ZM91.12 14.84L89.18 14.84L89.18 14.84Q89.05 14.60 88.96 14.05L88.96 14.05L88.96 14.05Q88.05 15 86.74 15L86.74 15L86.74 15Q85.47 15 84.66 14.27L84.66 14.27L84.66 14.27Q83.86 13.55 83.86 12.48L83.86 12.48L83.86 12.48Q83.86 11.13 84.86 10.40L84.86 10.40L84.86 10.40Q85.87 9.68 87.73 9.68L87.73 9.68L88.90 9.68L88.90 9.13L88.90 9.13Q88.90 8.47 88.53 8.07L88.53 8.07L88.53 8.07Q88.16 7.68 87.41 7.68L87.41 7.68L87.41 7.68Q86.77 7.68 86.35 8.00L86.35 8.00L86.35 8.00Q85.94 8.33 85.94 8.83L85.94 8.83L84.04 8.83L84.04 8.83Q84.04 8.13 84.50 7.53L84.50 7.53L84.50 7.53Q84.96 6.92 85.75 6.58L85.75 6.58L85.75 6.58Q86.55 6.23 87.52 6.23L87.52 6.23L87.52 6.23Q89.01 6.23 89.89 6.98L89.89 6.98L89.89 6.98Q90.77 7.73 90.80 9.08L90.80 9.08L90.80 12.89L90.80 12.89Q90.80 14.03 91.12 14.71L91.12 14.71L91.12 14.84ZM87.09 13.48L87.09 13.48L87.09 13.48Q87.66 13.48 88.15 13.20L88.15 13.20L88.15 13.20Q88.65 12.93 88.90 12.47L88.90 12.47L88.90 10.88L87.88 10.88L87.88 10.88Q86.82 10.88 86.29 11.24L86.29 11.24L86.29 11.24Q85.76 11.61 85.76 12.28L85.76 12.28L85.76 12.28Q85.76 12.83 86.12 13.15L86.12 13.15L86.12 13.15Q86.48 13.48 87.09 13.48ZM99.22 6.34L99.21 8.13L99.21 8.13Q98.84 8.06 98.44 8.06L98.44 8.06L98.44 8.06Q97.13 8.06 96.68 9.06L96.68 9.06L96.68 14.84L94.78 14.84L94.78 6.39L96.59 6.39L96.64 7.34L96.64 7.34Q97.33 6.23 98.55 6.23L98.55 6.23L98.55 6.23Q98.95 6.23 99.22 6.34L99.22 6.34ZM102.38 6.39L104.17 6.39L104.23 7.37L104.23 7.37Q105.16 6.23 106.69 6.23L106.69 6.23L106.69 6.23Q109.33 6.23 109.38 9.26L109.38 9.26L109.38 14.84L107.48 14.84L107.48 9.37L107.48 9.37Q107.48 8.56 107.13 8.18L107.13 8.18L107.13 8.18Q106.78 7.79 105.99 7.79L105.99 7.79L105.99 7.79Q104.84 7.79 104.28 8.83L104.28 8.83L104.28 14.84L102.38 14.84L102.38 6.39ZM113.58 17.41L113.58 17.41L112.55 16.80L112.55 16.80Q113.01 16.09 113.18 15.56L113.18 15.56L113.18 15.56Q113.34 15.03 113.35 14.48L113.35 14.48L113.35 13.01L115.06 13.01L115.05 14.38L115.05 14.38Q115.05 15.20 114.64 16.04L114.64 16.04L114.64 16.04Q114.23 16.87 113.58 17.41ZM126.83 2.84L126.83 14.84L124.93 14.84L124.93 2.84L126.83 2.84ZM134.62 15L134.62 15L134.62 15Q132.81 15 131.69 13.86L131.69 13.86L131.69 13.86Q130.57 12.73 130.57 10.84L130.57 10.84L130.57 10.60L130.57 10.60Q130.57 9.34 131.06 8.34L131.06 8.34L131.06 8.34Q131.55 7.34 132.43 6.79L132.43 6.79L132.43 6.79Q133.31 6.23 134.40 6.23L134.40 6.23L134.40 6.23Q136.13 6.23 137.07 7.34L137.07 7.34L137.07 7.34Q138.01 8.44 138.01 10.45L138.01 10.45L138.01 11.22L132.48 11.22L132.48 11.22Q132.57 12.27 133.18 12.88L133.18 12.88L133.18 12.88Q133.80 13.48 134.73 13.48L134.73 13.48L134.73 13.48Q136.03 13.48 136.85 12.43L136.85 12.43L137.88 13.41L137.88 13.41Q137.37 14.16 136.52 14.58L136.52 14.58L136.52 14.58Q135.67 15 134.62 15ZM134.39 7.76L134.39 7.76L134.39 7.76Q133.61 7.76 133.13 8.30L133.13 8.30L133.13 8.30Q132.65 8.85 132.52 9.83L132.52 9.83L136.13 9.83L136.13 9.69L136.13 9.69Q136.07 8.73 135.63 8.25L135.63 8.25L135.63 8.25Q135.18 7.76 134.39 7.76ZM148.47 14.84L146.53 14.84L146.53 14.84Q146.41 14.60 146.31 14.05L146.31 14.05L146.31 14.05Q145.41 15 144.09 15L144.09 15L144.09 15Q142.82 15 142.02 14.27L142.02 14.27L142.02 14.27Q141.21 13.55 141.21 12.48L141.21 12.48L141.21 12.48Q141.21 11.13 142.21 10.40L142.21 10.40L142.21 10.40Q143.22 9.68 145.09 9.68L145.09 9.68L146.25 9.68L146.25 9.13L146.25 9.13Q146.25 8.47 145.88 8.07L145.88 8.07L145.88 8.07Q145.52 7.68 144.77 7.68L144.77 7.68L144.77 7.68Q144.12 7.68 143.70 8.00L143.70 8.00L143.70 8.00Q143.29 8.33 143.29 8.83L143.29 8.83L141.39 8.83L141.39 8.83Q141.39 8.13 141.85 7.53L141.85 7.53L141.85 7.53Q142.31 6.92 143.11 6.58L143.11 6.58L143.11 6.58Q143.90 6.23 144.88 6.23L144.88 6.23L144.88 6.23Q146.36 6.23 147.24 6.98L147.24 6.98L147.24 6.98Q148.13 7.73 148.15 9.08L148.15 9.08L148.15 12.89L148.15 12.89Q148.15 14.03 148.47 14.71L148.47 14.71L148.47 14.84ZM144.45 13.48L144.45 13.48L144.45 13.48Q145.01 13.48 145.50 13.20L145.50 13.20L145.50 13.20Q146 12.93 146.25 12.47L146.25 12.47L146.25 10.88L145.23 10.88L145.23 10.88Q144.17 10.88 143.64 11.24L143.64 11.24L143.64 11.24Q143.11 11.61 143.11 12.28L143.11 12.28L143.11 12.28Q143.11 12.83 143.47 13.15L143.47 13.15L143.47 13.15Q143.84 13.48 144.45 13.48ZM156.57 6.34L156.56 8.13L156.56 8.13Q156.19 8.06 155.79 8.06L155.79 8.06L155.79 8.06Q154.48 8.06 154.03 9.06L154.03 9.06L154.03 14.84L152.13 14.84L152.13 6.39L153.95 6.39L153.99 7.34L153.99 7.34Q154.68 6.23 155.90 6.23L155.90 6.23L155.90 6.23Q156.30 6.23 156.57 6.34L156.57 6.34ZM159.73 6.39L161.52 6.39L161.58 7.37L161.58 7.37Q162.52 6.23 164.04 6.23L164.04 6.23L164.04 6.23Q166.68 6.23 166.73 9.26L166.73 9.26L166.73 14.84L164.83 14.84L164.83 9.37L164.83 9.37Q164.83 8.56 164.48 8.18L164.48 8.18L164.48 8.18Q164.13 7.79 163.34 7.79L163.34 7.79L163.34 7.79Q162.20 7.79 161.63 8.83L161.63 8.83L161.63 14.84L159.73 14.84L159.73 6.39ZM182.31 6.39L184.07 12.23L185.41 6.39L187.27 6.39L184.96 14.84L183.40 14.84L181.59 9.04L179.80 14.84L178.24 14.84L175.93 6.39L177.78 6.39L179.15 12.16L180.88 6.39L182.31 6.39ZM192.55 6.39L192.55 14.84L190.66 14.84L190.66 6.39L192.55 6.39ZM190.54 4.20L190.54 4.20L190.54 4.20Q190.54 3.76 190.82 3.47L190.82 3.47L190.82 3.47Q191.09 3.18 191.61 3.18L191.61 3.18L191.61 3.18Q192.13 3.18 192.41 3.47L192.41 3.47L192.41 3.47Q192.69 3.76 192.69 4.20L192.69 4.20L192.69 4.20Q192.69 4.63 192.41 4.91L192.41 4.91L192.41 4.91Q192.13 5.20 191.61 5.20L191.61 5.20L191.61 5.20Q191.09 5.20 190.82 4.91L190.82 4.91L190.82 4.91Q190.54 4.63 190.54 4.20ZM197.10 4.34L199 4.34L199 6.39L200.49 6.39L200.49 7.80L199 7.80L199 12.52L199 12.52Q199 13 199.19 13.21L199.19 13.21L199.19 13.21Q199.38 13.43 199.88 13.43L199.88 13.43L199.88 13.43Q200.20 13.43 200.54 13.35L200.54 13.35L200.54 14.82L200.54 14.82Q199.89 15 199.29 15L199.29 15L199.29 15Q197.10 15 197.10 12.59L197.10 12.59L197.10 7.80L195.71 7.80L195.71 6.39L197.10 6.39L197.10 4.34ZM205.81 2.84L205.81 7.31L205.81 7.31Q206.74 6.23 208.16 6.23L208.16 6.23L208.16 6.23Q210.87 6.23 210.91 9.32L210.91 9.32L210.91 14.84L209.01 14.84L209.01 9.39L209.01 9.39Q209.01 8.52 208.63 8.15L208.63 8.15L208.63 8.15Q208.25 7.79 207.52 7.79L207.52 7.79L207.52 7.79Q206.38 7.79 205.81 8.80L205.81 8.80L205.81 14.84L203.91 14.84L203.91 2.84L205.81 2.84ZM223.38 14.84L221.48 14.84L221.48 7.80L220.19 7.80L220.19 6.39L221.48 6.39L221.48 5.62L221.48 5.62Q221.48 4.21 222.26 3.45L222.26 3.45L222.26 3.45Q223.04 2.68 224.45 2.68L224.45 2.68L224.45 2.68Q224.95 2.68 225.51 2.82L225.51 2.82L225.46 4.30L225.46 4.30Q225.15 4.24 224.73 4.24L224.73 4.24L224.73 4.24Q223.38 4.24 223.38 5.64L223.38 5.64L223.38 6.39L225.09 6.39L225.09 7.80L223.38 7.80L223.38 14.84ZM233.65 14.84L233.60 14.02L233.60 14.02Q232.77 15 231.23 15L231.23 15L231.23 15Q229.85 15 229.14 14.20L229.14 14.20L229.14 14.20Q228.44 13.39 228.44 11.87L228.44 11.87L228.44 6.39L230.34 6.39L230.34 11.84L230.34 11.84Q230.34 13.45 231.67 13.45L231.67 13.45L231.67 13.45Q233.05 13.45 233.54 12.46L233.54 12.46L233.54 6.39L235.44 6.39L235.44 14.84L233.65 14.84ZM239.34 6.39L241.13 6.39L241.19 7.37L241.19 7.37Q242.13 6.23 243.65 6.23L243.65 6.23L243.65 6.23Q246.29 6.23 246.34 9.26L246.34 9.26L246.34 14.84L244.44 14.84L244.44 9.37L244.44 9.37Q244.44 8.56 244.09 8.18L244.09 8.18L244.09 8.18Q243.74 7.79 242.95 7.79L242.95 7.79L242.95 7.79Q241.80 7.79 241.24 8.83L241.24 8.83L241.24 14.84L239.34 14.84L239.34 6.39Z" transform="rotate(0 123.34499514102936 10.044999837875366)"></path><defs id="SvgjsDefs1398"></defs></svg></g></svg>